<svg width="17" height="17" viewBox="0 0 17 17" fill="none" xmlns="http://www.w3.org/2000/svg">
<path d="M11.6427 8.03518C11.5948 7.98437 11.5375 7.94349 11.4739 7.91485C11.4102 7.88622 11.3416 7.87041 11.2718 7.86831C11.2021 7.86621 11.1326 7.87788 11.0674 7.90263C11.0021 7.92739 10.9424 7.96476 10.8916 8.0126C8.44688 10.3156 5.99383 11.7167 3.10715 12.4309C2.71768 11.3684 2.68314 10.199 3.01949 9.05816C3.46574 7.54443 4.505 6.22561 6.02404 5.24445C7.38006 4.36855 8.73541 4.14045 10.0466 3.91998C11.7008 3.64174 13.2633 3.37877 14.7545 1.79996C14.9205 1.62531 15.1466 1.55525 15.3628 1.61203C15.6098 1.67844 15.7755 1.87367 15.8548 2.19641C16.0408 2.95178 15.9212 5.06881 15.3983 7.30371C14.5586 10.8943 13.2185 12.7112 12.242 13.6033C10.9803 14.7552 9.33274 15.393 7.69549 15.393C7.38688 15.3935 7.07866 15.3708 6.77344 15.3253C5.38854 15.1154 4.23572 14.4198 3.58594 13.4078C6.55729 12.6348 9.09567 11.1649 11.6211 8.78723C11.672 8.73932 11.7129 8.68184 11.7415 8.61808C11.7702 8.55432 11.7859 8.48554 11.788 8.41568C11.79 8.34582 11.7782 8.27625 11.7532 8.21095C11.7283 8.14566 11.6907 8.08593 11.6427 8.03518Z" fill="white"/>
<path d="M1.47989 12.7563C2.0387 12.6703 2.57991 12.5624 3.10684 12.4319C3.21518 12.7276 3.34998 13.013 3.5096 13.2845C3.53384 13.326 3.5594 13.3672 3.58563 13.4077C2.94473 13.5736 2.29576 13.7066 1.64126 13.8062C1.57161 13.8184 1.50023 13.8166 1.43128 13.8009C1.36234 13.7852 1.29722 13.7559 1.23976 13.7147C1.18229 13.6735 1.13362 13.6212 1.09661 13.561C1.05961 13.5007 1.035 13.4337 1.02423 13.3638C1.01347 13.2939 1.01677 13.2226 1.03393 13.154C1.05109 13.0854 1.08178 13.0209 1.12419 12.9643C1.16659 12.9077 1.21987 12.8602 1.28089 12.8245C1.34192 12.7887 1.40946 12.7656 1.47956 12.7563H1.47989Z" fill="white"/>
</svg>
